# xmcd
#
# Track frame offsets:
#	150
#	21640
#	37380
#	59115
#	79312
#	99626
#	120422
#	141105
#	158320
#	179036
#	204526
#	219884
#	235941
#	252131
#	271538
#	287552
#	304714
#	322182
#	339867
#
# Disc length: 4775 seconds
#
# Revision: 0
# Processed by: cddbd v1.5.1PL0 Copyright (c) Steve Scherf et al.
# Submitted via: audiograbber 1.83.01
#
DISCID=1712a513
DTITLE=HIM - DARK LIGHT
DYEAR=2005
DGENRE=Rock
TTITLE0=Vampire Heart
TTITLE1=Rip Out The Wings Of A Butterfly
TTITLE2=Under The Rose
TTITLE3=Killing Loneliness
TTITLE4=Dark Light
TTITLE5=Behind The Crimson Door
TTITLE6=The Face Of God
TTITLE7=Drunk On Shadows
TTITLE8=Play Dead
TTITLE9=In The Nightside Of Eden
TTITLE10=Bittersweet /Apocalyptica feat. Ville Valo and Lauri Ylonen/ (Acodstic
TTITLE10=Version)
TTITLE11=Solitary Man
TTITLE12=The Funeral Of Hearts
TTITLE13=Gone With A Sin
TTITLE14=Join Me In Death
TTITLE15=Poison Girl
TTITLE16=Pretending
TTITLE17=In Joy And Sorrow
TTITLE18=Wicked Game
EXTD=
EXTT0=
EXTT1=
EXTT2=
EXTT3=
EXTT4=
EXTT5=
EXTT6=
EXTT7=
EXTT8=
EXTT9=
EXTT10=
EXTT11=
EXTT12=
EXTT13=
EXTT14=
EXTT15=
EXTT16=
EXTT17=
EXTT18=
PLAYORDER=
